<?xml version="1.0" encoding="utf-8"?>
<!-- Generator: Adobe Illustrator 16.0.2, SVG Export Plug-In . SVG Version: 6.00 Build 0)  -->
<!DOCTYPE svg PUBLIC "-//W3C//DTD SVG 1.1//EN" "http://www.w3.org/Graphics/SVG/1.1/DTD/svg11.dtd">
<svg version="1.1" id="Layer_1" xmlns="http://www.w3.org/2000/svg" xmlns:xlink="http://www.w3.org/1999/xlink" x="0px" y="0px"
	 width="120px" height="150px" viewBox="0 0 120 150" enable-background="new 0 0 120 150" xml:space="preserve">
<path fill="#5DBA47" d="M73,28c0-17.3-4.9-24.3-12.2-24.3S48.5,9,48.5,28c-23.5,6.9-26,18.6-26,36.9c0,18.3,0,19.7,0,19.7
	c0,7.1,10.6,6.8,10.6,0V60.8c0-4.7,5.3-4.7,5.3-0.4c0,6,0,77.6,0,77.6c0.1,11.5,13.9,11.6,14.9,0l2.3-37c0,0,0.2-6.2,5.2-6.2
	c5,0,5.2,6.2,5.2,6.2l2.3,37c1,11.6,14.8,11.5,14.9,0c0,0,0-71.6,0-77.6c0-4.3,5.3-4.3,5.3,0.4v23.9c0,6.8,10.6,7.1,10.6,0
	c0,0,0-1.4,0-19.7C99,46.6,96.5,34.9,73,28z"/>
</svg>
