<?xml version="1.0" encoding="utf-8"?>
<!-- Generator: Adobe Illustrator 16.0.2, SVG Export Plug-In . SVG Version: 6.00 Build 0)  -->
<!DOCTYPE svg PUBLIC "-//W3C//DTD SVG 1.1//EN" "http://www.w3.org/Graphics/SVG/1.1/DTD/svg11.dtd">
<svg version="1.1" id="Layer_1" xmlns="http://www.w3.org/2000/svg" xmlns:xlink="http://www.w3.org/1999/xlink" x="0px" y="0px"
	 width="279.8px" height="392.3px" viewBox="0 0 279.8 392.3" enable-background="new 0 0 279.8 392.3" xml:space="preserve">
<path fill="#FFFFFF" d="M108.9,140.1c0-40.5-8.1-46-20.4-46c-12.3,0-20.4,5.5-20.4,46c-39.2,11.5-43.4,31-43.4,61.5
	c0,30.5,0,57.1,0,57.1c0,11.9,17.7,11.3,17.7,0v-64c0-7.8,8.8-7.8,8.8-0.7c0,10,0,175.2,0,175.2c0.2,19.2,23.1,19.3,24.8,0l3.8-87.1
	c0,0,0.3-10.3,8.6-10.3c8.3,0,8.6,10.3,8.6,10.3l3.8,87.1c1.7,19.3,24.6,19.2,24.8,0c0,0,0-165.3,0-175.2c0-7.1,8.8-7.1,8.8,0.7v64
	c0,11.3,17.7,11.9,17.7,0c0,0,0-26.6,0-57.1C152.2,171.1,148,151.6,108.9,140.1z"/>
<path fill="#FFFFFF" d="M151.1,91.3h-20.7c-4.4,0-8-3.6-8-8V20.5c0-4.4,3.6-8,8-8h123.3c4.4,0,8,3.6,8,8v62.8c0,4.4-3.6,8-8,8h-69.3
	l-45.2,30.3L151.1,91.3"/>
</svg>
