<?xml version="1.0" encoding="utf-8"?>
<!-- Generator: adobe Illustrator 16.0.2, SVG Export Plug-In . SVG Version: 6.00 Build 0)  -->
<!DOCTYPE svg PUBLIC "-//W3C//DTD SVG 1.1//EN" "http://www.w3.org/Graphics/SVG/1.1/DTD/svg11.dtd">
<svg version="1.1" xmlns="http://www.w3.org/2000/svg" xmlns:xlink="http://www.w3.org/1999/xlink" x="0" y="00" viewBox = "0 0 100% 100%"
>

<style>
	#a, #b, #c, #d, #d_ghost {
	cursor: pointer;
	}
</style>

<defs>
<linearGradient id="D_body_1_" gradientUnits="userSpaceOnUse" x1="540" y1="492" x2="540" y2="1019">
	<stop  offset="0" style="stop-color:#999999"/>
	<stop  offset="1" style="stop-color:#1a1a1a"/>
</linearGradient>
<linearGradient id="a_body_1_" gradientUnits="userSpaceOnUse" x1="386" y1="581" x2="386" y2="1323">
	<stop  offset="0" style="stop-color:#808080"/>
	<stop  offset="1" style="stop-color:#333333"/>
</linearGradient>
<linearGradient id="sidepillar" gradientUnits="userSpaceOnUse" x1="693" y1="582" x2="693" y2="1330">
	<stop  offset="0" style="stop-color:#808080"/>
	<stop  offset="1" style="stop-color:#333333"/>
</linearGradient>
<linearGradient id="strokemaskgradient" gradientUnits = "userSpaceOnUse" x1="434" y1="351" x2="434" y2="970">
	<stop  offset="0" style="stop-color:#FFFFFF"/>
	<stop  offset="0.5" style="stop-color:#FFFFFF"/>
	<stop  offset="1" style="stop-color:#4F4F4F"/>
</linearGradient>

<linearGradient id="bggradient" gradientUnits="userSpaceOnUse" x1="540" y1="0" x2="540" y2="1911">
	<stop  offset="0" style="stop-color:#525252"/>
	<stop  offset="0.53" style="stop-color:#1A1A1A"/>
</linearGradient>

<pattern id="nrg" x="0" y="-40" patternUnits="userSpaceOnUse" height="150" width="120">
      <image x="0" y="0" height="150" width="120" xlink:href="img/nrg.svg"></image>
</pattern>

<pattern id="plug" x="80" y="50" patternUnits="userSpaceOnUse" height="150" width="125">
      <image x="0" y="0" height="150" width="120" xlink:href="img/plug.svg"></image>
</pattern>

<pattern id="temp" x="-20" y="00" patternUnits="userSpaceOnUse" height="150" width="125">
      <image x="0" y="0" height="150" width="120" xlink:href="img/temp.svg"></image>
</pattern>

<pattern id="h20" x="10" y="50" patternUnits="userSpaceOnUse" height="150" width="125">
      <image x="0" y="0" height="150" width="120" xlink:href="img/h20.svg"></image>
</pattern>

</defs>


<g id = "velowrapper">
<g id = "all">
<g id = "dwrapper">
	<g id = "d">

	<polygon id="d_body" fill="url(#D_body_1_)" points="656,554 540,488 424,554 424,1087 
		540,1021 655,1087" clip-path = "url(#maskd)"/>
	<polygon id="d_top" opacity="0.4" fill="#FFFFFF" points="424,555 540,488 655,555 540,621 "/>
	<polygon id="d_stroker" fill = "none" points="656,554 540,488 424,554 424,1087 
		540,1021 655,1087 " stroke = "#FFFFFF" stroke-width = "20" stroke-dasharray = "1600" stroke-dashoffset = "1600" clip-path = "url(#maskd)"/>

	<rect id = "d_marker" x = "480" y = "557" fill = "url(#nrg)" width="120" height="150" clip-path = "url(#d_markclip)" />
	<clipPath id = "d_markclip">
		<rect id = "d_mc" x = "470" y = "407" fill = "none" width="140" height="150"/>
	</clipPath>
	</g>
</g>

 <g id = "awrapper">
	<g id = "a">

	<polygon id="a_body" fill="url(#a_body_1_)" points="270,643 386,577 501,643 386,710
		386.288,1243 270,1176 "  clip-path = "url(#maska)"/>
	<polygon id="a_top" opacity="0.3" fill="#FFFFFF" points="270,643 386,577 501,643 386,710
		"/>
	<polygon id="a_stroker" opacity = "100" fill = "none" points="270,643 386,577 501,643 386,710
		386.288,1243 270,1176 " stroke = "#34A849" stroke-width = "20" stroke-dasharray = "1600" stroke-dashoffset = "-1600" clip-path = "url(#maska)"/> 
	<rect id = "a_marker" x = "325" y = "650" fill = "url(#plug)" width="120" height="150" clip-path = "url(#a_markclip)"/>
	<clipPath id = "a_markclip">
		<rect id = "a_mc" x = "320" y = "500" fill = "none" width="130" height="150"/>
	</clipPath>
	</g>
</g>

<g id = "cwrapper">
	<g id = "c" >
	<polygon id="c_body" fill="url(#sidepillar)" points="809,643 693,577 578,643 693,710
		693,1243 809,1176 " clip-path = "url(#maskc)"/>
	<polygon id="C_top" opacity="0.2" fill="#FFFFFF" points="578,643 693,577 809,643 693,710"/>
	<polygon id="c_stroker" fill = "none" points="809,643 693,577 578,643 693,710
		693,1243 809,1176 " stroke = "#F8A71A" stroke-width = "20" stroke-dasharray = "1600" stroke-dashoffset = "1600" clip-path = "url(#maskc)" />
	<rect id = "c_marker" x = "635" y = "650" fill = "url(#h20)" width="120" height="150" clip-path = "url(#c_markclip)"/>
	<clipPath id = "c_markclip">
		<rect id = "c_mc" x = "630" y = "500" fill = "none" width="130" height="150"/>
	</clipPath>
	</g>
</g>

<g id = "bwrapper">
	<g id = "b">
	<polygon id="b_body" fill="url(#sidepillar)" points="655,732 539,666 424,732 424,1265
		539,1332 655,1265"  clip-path = "url(#maskb)"/>
	<polygon id="B_top" opacity="0.1" fill="#FFFFFF" points="424,732 540,666 655,732 540,799 "/>
	<polygon id="b_stroker" fill = "none" points="655,732 539,666 424,732 424,1265
		539,1332 655,1265" stroke = "#0FA1C5" stroke-width = "20" stroke-dasharray = "1600" stroke-dashoffset = "-1600" clip-path = "url(#maskb)"/>
	<rect id = "b_marker" x = "480" y = "745" fill = "url(#temp)" width="120" height="150" clip-path = "url(#b_markclip)"/>
	<clipPath id = "b_markclip">
		<rect id = "b_mc" x = "475" y = "595" fill = "none" width="130" height="150"/>
	</clipPath>
	</g>
</g>

<g id = "dgwrapper">
	<g id = "d_ghost" opacity = "0">
		<polygon id="d_ghosttop" fill="#ffffff" fill-opacity="0.2" stroke-width = "7" stroke-dashoffset = "3" stroke-dasharray = "10 12" stroke = "#ffffff" points="424,555 540,488 655,555 540,621 "/>
		<path id = "d_ghostbottom" opacity = "0.3" fill = "none" stroke-width = "7" stroke-dasharray = "20 15" d = "M 424 1087 L 540 1021 L 655 1087" stroke = "#ffffff"/>

	</g>  
</g>
</g>



<clipPath id = "maskd">
<polygon id="md" points="657,1095 540,1027 421,1095 421,549 540,481
	658,549 "/>
</clipPath>

<clipPath id = "maska">
<polygon id="ma" points="386,1251 268,1182 268,637 386,569 510,644 
	510,1251 "/>
</clipPath>

<clipPath id = "maskb">
<polygon id="mb" points="657,1270 539,1338 422,1270 422,727 540,660 
	657,727 "/>
</clipPath>

<clipPath id = "maskc">
<polygon id="mc" points="811,1182 693,1251 569,1251 569,643 693,569 
	811,637 "/>
</clipPath>



<g id = "themasks">
<mask id = "strokemaskd">
<rect x="397" y="451" fill="url(#strokemaskgradient)" width="273" height="800"/>
</mask>
<mask id = "strokemaska">
<rect x="241" y="559" fill="url(#strokemaskgradient)" width="292" height="800"/>
</mask>

<mask id = "strokemaskc">
<rect x="532" y="559" fill="url(#strokemaskgradient)" width="292" height="800"/>
</mask>

<mask id = "strokemaskb">
<rect x="397" y="532" fill="url(#strokemaskgradient)" width="273" height="800"/>
</mask>

</g>
</g>


</svg>





