<?xml version="1.0" encoding="utf-8"?>
<!-- Generator: Adobe Illustrator 16.0.2, SVG Export Plug-In . SVG Version: 6.00 Build 0)  -->
<!DOCTYPE svg PUBLIC "-//W3C//DTD SVG 1.1//EN" "http://www.w3.org/Graphics/SVG/1.1/DTD/svg11.dtd">
<svg version="1.1" id="Layer_1" xmlns="http://www.w3.org/2000/svg" xmlns:xlink="http://www.w3.org/1999/xlink" x="0px" y="0px"
	 width="213.066px" height="346.209px" viewBox="-192.9 -346.209 213.066 346.209"
	 enable-background="new -192.9 -346.209 213.066 346.209" xml:space="preserve">
<path fill="#FFFFFF" d="M-108.7-197.638c0-28.8-8.1-40.5-20.4-40.5s-20.4,8.801-20.4,40.5c-39.2,11.5-43.4,31-43.4,61.5
	s0,32.9,0,32.9c0,11.9,17.7,11.3,17.7,0v-39.8c0-7.8,8.8-7.8,8.8-0.7c0,10,0,129.3,0,129.3c0.2,19.2,23.1,19.3,24.8,0l3.8-61.6
	c0,0,0.3-10.3,8.6-10.3s8.6,10.3,8.6,10.3l3.8,61.6c1.7,19.3,24.6,19.2,24.8,0c0,0,0-119.399,0-129.3c0-7.1,8.8-7.1,8.8,0.7v39.8
	c0,11.3,17.7,11.9,17.7,0c0,0,0-2.4,0-32.9C-65.4-166.638-69.6-186.138-108.7-197.638z"/>
<path fill="#FFFFFF" d="M-92.458-270.805c-3.678,0-6.742-3.497-6.742-7.694v-60.016c0-4.197,3.064-7.694,6.742-7.694H10.758
	c3.678,0,6.742,3.498,6.742,7.694v60.016c0,4.197-3.064,7.694-6.742,7.694h-51.849l-45.275,40.638l12.667-40.638H-92.458z"/>
</svg>
