
<svg version="1.1" xmlns="http://www.w3.org/2000/svg" xmlns:xlink="http://www.w3.org/1999/xlink" x="0px" y="0px"
	 width="50px" height="50px" viewBox="0 0 50 50" xml:space="preserve">
<g>
	<polyline fill="#E04C0A" points="35,27.9 35,36.2 24.9,41.9 15,36.2 15,27.9 	"/>
	<polygon fill="#E04C0A" points="35,27.9 24.9,33.7 15,27.9 24.9,22.1 	"/>
	<polygon fill="#F4731C" points="24.9,33.7 24.9,41.9 35,36.2 35,27.9 	"/>

	<animateMotion id = "a1" type = "translate" from = "0,0" to = "0,5.75" begin = "2.5s;a2.end+4" dur = "0.5s" fill = "freeze"/>
	<animateMotion id = "a2" type = "translate" from = "0,5.75" to = "0,0" begin = "a1.end+2" dur = "0.5s" fill = "freeze"/>
</g>
<g>
	<polygon fill="#2E7282" points="35,23.6 24.9,29.4 15,23.6 24.9,17.8 	"/>
	<polygon fill="#28B3DD" points="35,27.9 24.9,33.6 15,27.9 15,23.6 24.9,29.4 35,23.6 	"/>
	<polygon fill="#2E7282" points="24.9,29.4 24.9,33.6 15,27.9 15,23.6 	"/>
</g>
<g>
	<polygon fill="#DBDB42" points="15,23.7 15,14 24.9,8.3 35,14 35,23.7 24.9,29.4 	"/>
	<polygon fill="#C1B011" points="15,14 24.9,19.9 24.9,29.4 15,23.7 	"/>
	<polygon fill="#FFF988" points="35,14 24.9,19.9 15,14 24.9,8.3 	"/>
	<animateMotion id = "a1" type = "translate" from = "0,0" to = "0,-5" begin = "2.5s;a2.end+4" dur = "0.5s" fill = "freeze"/>
	<animateMotion id = "a2" type = "translate" from = "0,-5" to = "0,0" begin = "a1.end+2" dur = "0.5s" fill = "freeze"/>
</g>
</svg>
