<?xml version="1.0" encoding="utf-8"?>
<!-- Generator: Adobe Illustrator 16.0.2, SVG Export Plug-In . SVG Version: 6.00 Build 0)  -->
<!DOCTYPE svg PUBLIC "-//W3C//DTD SVG 1.1//EN" "http://www.w3.org/Graphics/SVG/1.1/DTD/svg11.dtd">
<svg version="1.1" id="Layer_1" xmlns="http://www.w3.org/2000/svg" xmlns:xlink="http://www.w3.org/1999/xlink" x="0px" y="0px"
	 width="50px" height="50px" viewBox="0 0 50 50" enable-background="new 0 0 50 50" xml:space="preserve">
<radialGradient id="SVGID_1_" cx="3.667" cy="42.833" r="35.3412" gradientTransform="matrix(-1 0 0 1 50.5762 0)" gradientUnits="userSpaceOnUse">
	<stop  offset="0" style="stop-color:#F9A12C"/>
	<stop  offset="0.2737" style="stop-color:#F7942C"/>
	<stop  offset="1" style="stop-color:#ED1C29"/>
</radialGradient>
<path fill="url(#SVGID_1_)" d="M43.5,46.1c5.7-3.9,6-12.1,2-18.8c-4-6.7-3.7-10.3-1.9-13.5c-4.3,3.7-5,6.3-4.8,8.5
	c-2.4-0.2-3.4-2.7-4-6.5c-0.5-3.6-2.6-7.2-5.4-8.1c-3.9-1.3-5.5-4.3-6.2-5.6c0.3,2.3,0.6,4.1,0.4,6.3C22.3,8.8,15.1,3.7,10,3.2
	C5.1,2.7,2.4,3.6,2.4,3.6c3.3,0.5,9,2.8,6.1,11C6.6,20,2.2,26.2,9.2,34.7c4.7,5.7,8.6,6.6,13.6,6.3c-3.3,0.6-8.1,0.1-11.1-0.4
	c6.5,2.3,9.3,6.2,17.1,7.4C32.2,48.5,39.8,48.6,43.5,46.1z"/>
<path fill="#13110F" d="M13.7,10.8c0.8,2.5,3.4,4.1,10.1,6.9c7.9,3.2,9.9,7.7,11.7,12.5c0.2,0.5,0.4,0.9,0.5,1.3
	c-0.1-0.1-0.2-0.1-0.2-0.2c-0.3-0.2-0.6-0.5-1-0.7c-0.3-0.2-0.7-0.5-1.1-0.7c-0.4-0.2-0.8-0.4-1.2-0.6c-0.2-0.1-0.4-0.2-0.6-0.3
	c-0.2-0.1-0.4-0.2-0.6-0.3c-0.4-0.2-0.8-0.4-1.3-0.5c-0.9-0.3-1.7-0.6-2.6-0.9c-0.9-0.3-1.7-0.6-2.6-0.9c-0.4-0.2-0.8-0.4-1.2-0.6
	c-0.4-0.2-0.8-0.4-1.1-0.6c-0.3-0.2-0.7-0.4-1-0.7c-0.3-0.3-0.6-0.5-0.9-0.8c-0.3-0.2-0.5-0.5-0.8-0.8c-0.2-0.3-0.5-0.5-0.7-0.8
	c-0.4-0.6-0.7-1.1-1-1.6c-0.3-0.5-0.5-0.9-0.7-1.3c-0.4-0.7-0.6-1.1-0.6-1.1s0.2,0.4,0.5,1.2c0.2,0.4,0.3,0.8,0.6,1.3
	c0.3,0.5,0.6,1,0.9,1.6c0.2,0.3,0.4,0.6,0.7,0.9c0.2,0.3,0.5,0.6,0.8,0.9c0.3,0.3,0.6,0.6,0.9,0.9c0.3,0.3,0.7,0.5,1,0.8
	c0.3,0.3,0.7,0.5,1.1,0.7c0.4,0.2,0.8,0.5,1.2,0.7c0.8,0.4,1.7,0.8,2.5,1.1c0.9,0.3,1.7,0.7,2.5,1c0.4,0.2,0.8,0.4,1.2,0.6
	c0.1,0.1,0.3,0.1,0.4,0.2c0,0,0,0,0.1,0c1.7,0.7,4.3,2.3,6.1,4.1c1.4,2.1,2.8,3.9,3.5,7.9l-0.5,0.2c-1.9-5.7-5.5-7.3-8-7.5
	c-3-0.3-10.5-0.3-15.4-5.2C12.5,24.8,11.9,16.8,13.7,10.8z"/>
</svg>
