<?xml version="1.0" encoding="utf-8"?>
<!-- Generator: Adobe Illustrator 16.0.2, SVG Export Plug-In . SVG Version: 6.00 Build 0)  -->
<!DOCTYPE svg PUBLIC "-//W3C//DTD SVG 1.1//EN" "http://www.w3.org/Graphics/SVG/1.1/DTD/svg11.dtd">
<svg version="1.1" xmlns="http://www.w3.org/2000/svg" xmlns:xlink="http://www.w3.org/1999/xlink" x="0px" y="0px"
	 width="50px" height="50px" viewBox="0 0 50 50" id = "efficient">

<style>
	svg{
		background-color: none;
	}
</style>
<path fill="#FFFFFF" d="M22.5,16.7c1.2,1,2.3,2.2,3.3,3.6c1.8-4,5.4-7.9,9.3-11.1c-1.3-4-4.9-7.1-9.3-7.5c-6-0.6-11.4,3.8-12,9.8
	c0,0.1,0,0.2,0,0.3C16.8,13.2,19.7,14.5,22.5,16.7z"/>
<radialGradient id="SVGID_1_" cx="4.9863" cy="-4.9614" r="24.6525" gradientTransform="matrix(0.9951 9.880000e-002 -9.880000e-002 0.9951 23.8081 15.4541)" gradientUnits="userSpaceOnUse">
	<stop offset="7.177030e-002" style="stop-color:#DAEFE9"/>
	<stop offset="1" style="stop-color:#58BF8F"/>
</radialGradient>
<path fill="url(#SVGID_1_)" d="M49.1,5.9C45.6,6,28.4,15.7,27.5,25.5c0.9,3.1,1.4,6.2,1.5,9.5c0.6-1.3,1.2-2.6,1.9-3.8
	c0.6-1,1.2-2,1.8-3c0.7-1,1.4-1.8,2.1-2.6c1.4-1.7,2.6-3.2,3.7-4.6c2.2-2.7,3.6-4.4,3.6-4.4s-1.3,1.9-3.2,4.8
	c-1,1.4-2.1,3.1-3.3,4.9c-0.6,0.9-1.2,1.8-1.8,2.7c-0.6,0.9-1.1,1.9-1.6,2.9c-1.9,4.1-3.7,10.5-4,13c-0.3,2.5-0.3,2.1-0.4,2.8
	c0,0.3,0,0.5-0.1,0.8c5.4-11.3,12.1-16.6,17.7-21.8C48.3,22.6,49.2,9.2,49.1,5.9z"/>
<g>
	
		<radialGradient id="SVGID_2_" cx="-3.625" cy="-4.8062" r="23.3122" gradientTransform="matrix(0.9951 9.880000e-002 -9.880000e-002 0.9951 23.8081 15.4541)" gradientUnits="userSpaceOnUse">
		<stop  offset="0.2727" style="stop-color:#C1E4DA"/>
		<stop  offset="1" style="stop-color:#58BF8F"/>
	</radialGradient>
	<path fill="url(#SVGID_2_)" d="M25.2,36.7c-0.2-0.9-0.5-1.8-1-2.8c-0.4-0.9-1-1.8-1.6-2.7c-0.7-0.8-1.4-1.7-2.2-2.4
		c-3.3-3-7.7-4.7-10.6-6.8c-0.7-0.5-1.3-1.1-1.8-1.6c-0.5-0.5-0.8-1.1-1-1.5c-0.2-0.5-0.3-0.8-0.4-1.1c-0.1-0.3-0.1-0.4-0.1-0.4
		s0,0.1,0.1,0.4C6.8,18,7,18.4,7.2,18.8c0.3,0.4,0.6,0.9,1.1,1.4c0.5,0.5,1.1,1,1.8,1.4c2.9,1.8,7.4,3.2,11.2,6.1
		c1,0.7,1.8,1.6,2.6,2.5c0.8,0.9,1.5,1.9,2,2.9c0.4,0.7,0.6,1.3,0.9,2c0.1-5-2.4-12.8-6.5-16.2c-4.2-3.4-8.9-4.3-12.8-7.1
		C3.6,9,1.4,5.7,1.4,5.7c-2,10.7,0.5,17.2,4.1,22.1c2.5,3.5,6.3,6.4,10.3,8.2c4.5,2.1,8.9,8.2,9.6,11.4C25.7,45.3,26.2,41,25.2,36.7
		z"/>
</g>
</svg>
