<?xml version="1.0" encoding="utf-8"?>
<!-- Generator: Adobe Illustrator 16.0.2, SVG Export Plug-In . SVG Version: 6.00 Build 0)  -->
<!DOCTYPE svg PUBLIC "-//W3C//DTD SVG 1.1//EN" "http://www.w3.org/Graphics/SVG/1.1/DTD/svg11.dtd">
<svg version="1.1" id="Layer_1" xmlns="http://www.w3.org/2000/svg" xmlns:xlink="http://www.w3.org/1999/xlink" x="0px" y="0px"
	 width="50px" height="50px" viewBox="0 0 50 50" enable-background="new 0 0 50 50" xml:space="preserve">
<g opacity="0.7">
	<path fill="#A2BD6B" d="M25.801,42.7c-2.9-0.301-3.5,2.6-3.4,3.3c-0.5-1.601,0.5-4.2,2.8-3.9L25.801,42.7z"/>
	<linearGradient id="SVGID_1_" gradientUnits="userSpaceOnUse" x1="31.4463" y1="37.6973" x2="48.0713" y2="28.6973">
		<stop  offset="0" style="stop-color:#A2BD6B"/>
		<stop  offset="1" style="stop-color:#D1C88D"/>
	</linearGradient>
	<path fill="url(#SVGID_1_)" d="M39.6,24.5c-0.1,2.4-0.3,4.7-0.699,6.8L44,28l-5.5,4.3c-0.9,3.601-2.4,6.5-4.7,8.101
		c-2,1.399-4,2-6.2,2l0,0C26.8,42.4,26,42.3,25.2,42.1c1.7,2,3.8,3.4,7,3.2C38.9,45,46,33.1,48.3,24.5
		C45.7,24.4,42.7,24.3,39.6,24.5z"/>
</g>
<g opacity="0.9">
	<linearGradient id="SVGID_2_" gradientUnits="userSpaceOnUse" x1="26.7227" y1="38.1201" x2="34.0977" y2="13.9951">
		<stop  offset="0" style="stop-color:#D58D65"/>
		<stop  offset="1" style="stop-color:#D2AA67"/>
	</linearGradient>
	<path fill="url(#SVGID_2_)" d="M36.2,7c-3.5,1.6-7.4,3.9-10.9,6.7c1.601,3.2,2.8,6.5,3.5,9.7l4-7.5l-3.6,9.6
		c0.5,3.3,0.2,6.4-1.2,8.7c-2,3.5-4.9,4.899-7.6,5.5c0.2,0.1,0.5,0.2,0.8,0.399C25,41.8,29,42.5,33,39.7C39.8,34.9,39.5,17.6,36.2,7
		z"/>
	<path fill="#D58D65" d="M21.3,40.1c-1.097,1.489-1.69,3.354-1,6.801c-1.3-2.916-1.081-5.057,0.1-7.2L21.3,40.1z"/>
</g>
<g>
	<g>
		<g>
			<linearGradient id="SVGID_3_" gradientUnits="userSpaceOnUse" x1="17.9497" y1="14" x2="17.9497" y2="51.5884">
				<stop  offset="0" style="stop-color:#B9A682"/>
				<stop  offset="1" style="stop-color:#815137"/>
			</linearGradient>
			<path fill="url(#SVGID_3_)" d="M17,23.5V10l1.5,21.6l8.9-8.899C25.6,15.7,21,7.8,16.5,2.6c-2.9,3.3-5.8,7.8-8,12.4L17,23.5z"/>
		</g>
		<g>
			<linearGradient id="SVGID_4_" gradientUnits="userSpaceOnUse" x1="10.8931" y1="14" x2="10.8931" y2="51.5884">
				<stop  offset="0" style="stop-color:#B9A682"/>
				<stop  offset="1" style="stop-color:#815137"/>
			</linearGradient>
			<path fill="url(#SVGID_4_)" d="M17,24.6l-8.9-8.9C5,22.5,3.6,29.5,6,33.7c2.5,4.3,6.4,5.2,10.5,5.2c0.2,0,0.3,0,0.5,0V24.6z"/>
		</g>
		<g>
			<linearGradient id="SVGID_5_" gradientUnits="userSpaceOnUse" x1="23.416" y1="14" x2="23.416" y2="51.5884">
				<stop  offset="0" style="stop-color:#B9A682"/>
				<stop  offset="1" style="stop-color:#815137"/>
			</linearGradient>
			<path fill="url(#SVGID_5_)" d="M18.6,32.9l0.4,5.8c3.2-0.4,6-1.7,8-5.101c1.5-2.5,1.5-6,0.7-9.8L18.6,32.9z"/>
		</g>
	</g>
	<path fill="#937261" d="M17,37.9c0,3.537,0.547,6.178,2,10.8c-2.797-4.185-3.7-8.106-3.7-10.8H17z"/>
</g>
</svg>
