<?xml version="1.0" encoding="utf-8"?>
<!DOCTYPE svg PUBLIC "-//W3C//DTD SVG 1.1//EN" "http://www.w3.org/Graphics/SVG/1.1/DTD/svg11.dtd">
<svg version="1.1" xmlns="http://www.w3.org/2000/svg" xmlns:xlink="http://www.w3.org/1999/xlink" x="0px" y="0px"
	 width="50px" height="50px" viewBox="0 0 50 50" enable-background="new 0 0 50 50" xml:space="preserve">
<g>
	<path fill="none" stroke="#302723" stroke-width="2" stroke-miterlimit="10" d="M33,20.8c6.1,0,7.8,4.6,7,8.1l-0.4,0.8
		c7.3,0,6.6,13.5,1,14.1c-5.9,0.6-28.3,0-28.3,0C1,43.8,1.6,31.3,10.5,30.7l-0.3-0.1c-2.5-1.9-0.8-8,5.6-9.4l0,0
		c-2.4-2.7-0.5-8,6.9-8.2c3.3-0.1,5.2-0.6,5.4-2.7c0.2-2.4-4.7-5.8-1.9-5.8c7,0.7,10.1,10.7,7.1,15.7C33.3,20.3,33,20.5,33,20.8z"/>
	<radialGradient id="SVGID_1_" cx="54.4" cy="33.75" r="36.4" gradientUnits="userSpaceOnUse">
		<stop  offset="0" style="stop-color:#9F7C45"/>
		<stop  offset="1" style="stop-color:#79513A"/>
	</radialGradient>
	<path fill="url(#SVGID_1_)" d="M33,20.8c6.1,0,7.8,4.6,7,8.1l-0.4,0.8c7.3,0,6.6,13.5,1,14.1c-5.9,0.6-28.3,0-28.3,0
		C1,43.8,1.6,31.3,10.5,30.7l-0.3-0.1c-2.5-1.9-0.8-8,5.6-9.4l0,0c-2.4-2.7-0.5-8,6.9-8.2c3.3-0.1,5.2-0.6,5.4-2.7
		c0.2-2.4-4.7-5.8-1.9-5.8c7,0.7,10.1,10.7,7.1,15.7C33.3,20.3,33,20.5,33,20.8z"/>
</g>
<radialGradient id="SVGID_2_" cx="27.5" cy="-21.2" r="61.3" gradientUnits="userSpaceOnUse">
	<stop  offset="0.82" style="stop-color:#2B241F;stop-opacity:1"/>
	<stop  offset="1" style="stop-color:#2B241F;stop-opacity:0"/>
</radialGradient>
<path opacity="0.8" fill="url(#SVGID_2_)" d="M36.8,32.4c-3.5,1.9-9.5,3.4-20.9-0.9C9.1,29,5,32.2,4.1,35.6c3.7,1.4,11.3,4.8,20.8,5
	c7.5,0.2,17.9-2.2,19.8-6.3c-1.4-4.9-4.3-4.5-5.1-4.6C39.5,29.7,38.9,31.3,36.8,32.4z"/>
<path fill="#2B241F" d="M12.6,43.8c0,0-0.2,0-0.6,0c-0.4,0-1,0-1.7-0.1c-0.7-0.1-1.6-0.3-2.5-0.7c-0.9-0.4-2-1.1-2.8-2.1
	c-0.8-1-1.4-2.4-1.4-3.9c0-1.5,0.5-3.1,1.6-4.4c1.1-1.2,2.7-2,4.4-2.3c1.7-0.3,3.5-0.1,5.1,0.4c1.7,0.5,3.1,1.1,4.7,1.5
	c1.6,0.5,3.1,0.8,4.6,1.1c3,0.6,5.9,0.7,8.3,0.4c1.2-0.2,2.3-0.5,3.2-0.9c0.9-0.4,1.7-0.8,2.2-1.3c0.6-0.4,1-0.9,1.2-1.2
	c0.2-0.3,0.4-0.5,0.4-0.5s-0.1,0.2-0.3,0.5c-0.2,0.3-0.6,0.8-1.1,1.3c-1.1,1-3,2.1-5.5,2.5c-2.5,0.5-5.5,0.5-8.6-0.1
	c-1.5-0.3-3.1-0.6-4.7-1.1c-1.6-0.4-3.2-1-4.7-1.5c-1.5-0.4-3.2-0.6-4.7-0.4c-1.5,0.2-3,0.9-3.9,2C5.4,33.7,5,34.3,4.7,35
	c-0.3,0.6-0.4,1.3-0.4,2c0,1.3,0.4,2.6,1.1,3.6c0.7,1,1.6,1.6,2.5,2.1c0.9,0.5,1.7,0.7,2.4,0.9c0.7,0.1,1.3,0.2,1.7,0.2
	C12.4,43.7,12.6,43.8,12.6,43.8z"/>
<path fill="#2B241F" d="M10.3,31.1c-0.1-0.1-0.2-0.1-0.4-0.2c-0.2-0.1-0.3-0.2-0.4-0.3C9.3,30.3,9.1,30,9,29.7
	c-0.2-0.6-0.3-1.2-0.3-1.8c0.1-1.2,0.6-2.3,1.2-3.3c1.4-1.9,3.6-3,5.8-3.5l0.1,0l0.1,0c2.8,0.9,5.7,1.4,8.6,1.3
	c1.4,0,2.9-0.2,4.3-0.5c0.7-0.2,1.4-0.4,2.1-0.6c0.7-0.2,1.4-0.5,2-0.8l0,0l0,0c1.1,0,2.3,0.2,3.3,0.6c1,0.4,2,1.1,2.7,2
	c0.7,0.9,1,2,1.1,3.1c0.1,0.6,0,1.1,0,1.7c-0.1,0.5-0.2,1.1-0.5,1.6c0.3-0.5,0.4-1,0.5-1.6c0.1-0.6,0.1-1.1,0-1.7
	c-0.1-1.1-0.5-2.2-1.2-3.1c-0.7-0.9-1.6-1.5-2.6-1.9c-1-0.4-2.1-0.5-3.2-0.6l0.1,0c-0.7,0.3-1.4,0.6-2.1,0.8
	c-0.7,0.2-1.4,0.4-2.1,0.6c-1.4,0.4-2.9,0.6-4.4,0.6c-3,0.1-5.9-0.3-8.8-1.1l0.2,0c-2.1,0.5-4,1.6-5.2,3.3c-0.6,0.8-1,1.8-1,2.8
	c0,0.5,0,1,0.2,1.4c0.1,0.2,0.2,0.4,0.4,0.5c0.1,0.1,0.2,0.1,0.2,0.2c0,0,0.2,0.1,0.3,0.2L10.3,31.1z"/>
<radialGradient id="SVGID_3_" cx="23.8" cy="-13.9" r="42" gradientUnits="userSpaceOnUse">
	<stop  offset="0.76" style="stop-color:#2B241F;stop-opacity:1"/>
	<stop  offset="1" style="stop-color:#2B241F;stop-opacity:0"/>
</radialGradient>
<path fill="url(#SVGID_3_)" d="M33,20.8c1.3,0,5.5,0.3,6.8,4.4c-9.4,6.1-30.3,1.2-30.2,0.9s1.6-4,6.3-5C24.5,23.8,29.7,22.1,33,20.8
	z"/>
</svg>
