
<svg version="1.1" xmlns="http://www.w3.org/2000/svg" xmlns:xlink="http://www.w3.org/1999/xlink" x="0px" y="0px" width="50px" height="50px" viewBox="0 0 50 50" enable-background="new 0 0 50 50" xml:space="preserve">

<g fill = "none" stroke="#231F20" stroke-width="2.5">
<path d="M36.9,15.1H13.2c-1.6,0-2.9,1.3-2.9,2.9v10.6c0,1.6,1.3,2.9,2.9,2.9h7.3v6.3l6.9-6.3h9.5c1.6,0,2.9-1.3,2.9-2.9V18C39.8,16.4,38.5,15.1,36.9,15.1z">
	<animateMotion class="open" type = "translate" from="0,0" to="-1,9" begin="indefinite" dur="0.25s" fill = "freeze" />
	<animateTransform class="open" attributeName = "transform" type="scale" from="1" to="0.85" 
		begin = "indefinite" dur="0.25s" fill="freeze"/>
	<animate class="open" attributeName = "d" begin="indefinite" dur="0.25s" fill="freeze" to="M17.5,15.1h-4.3c-1.6,0-2.9,1.3-2.9,2.9v10.6
	c0,1.6,1.3,2.9,2.9,2.9h7.3v6.3l6.9-6.3h9.5c1.6,0,2.9-1.3,2.9-2.9V27C27.8,27,20.3,21,17.5,15.1z" />

	<animateMotion class="close" type = "translate" from="-1,9" to="0,0" begin="indefinite" dur="0.25s" fill = "freeze" />
	<animateTransform class="close" attributeName = "transform" type="scale" from="0.85" to="1" 
		begin = "indefinite" dur="0.25s" fill="freeze"/>
	<animate class="close" attributeName = "d" begin="indefinite" dur="0.25s" fill="freeze" to="M36.9,15.1H13.2c-1.6,0-2.9,1.3-2.9,2.9v10.6c0,1.6,1.3,2.9,2.9,2.9h7.3v6.3l6.9-6.3h9.5c1.6,0,2.9-1.3,2.9-2.9V18C39.8,16.4,38.5,15.1,36.9,15.1z" />
</path>
<path transform = "scale(0.9) translate(30,0)" d="M49.5,21.1c2.3-2,3.7-4.6,3.7-7.5c0-6.1-6.2-11.1-13.9-11.1s-13.9,5-13.9,11.1c0,6.1,6.2,11.1,13.9,11.1c1.1,0,2.2-0.1,3.2-0.3l7.6,5.2L49.5,21.1z">
<animateMotion class="open" type = "translate" from = "0,0" to="-32.5,6" begin="indefinite" dur="0.25s" fill="freeze" />
<animateMotion class="close" type = "translate" from="-32.5,6" to="0,0" begin="indefinite" dur="0.25s" fill="freeze" />
</path>
</g>

</svg>
