<?xml version="1.0" encoding="utf-8"?>
<!-- Generator: Adobe Illustrator 16.0.2, SVG Export Plug-In . SVG Version: 6.00 Build 0)  -->
<!DOCTYPE svg PUBLIC "-//W3C//DTD SVG 1.1//EN" "http://www.w3.org/Graphics/SVG/1.1/DTD/svg11.dtd">
<svg version="1.1" id="Layer_1" xmlns="http://www.w3.org/2000/svg" xmlns:xlink="http://www.w3.org/1999/xlink" x="0px" y="0px"
	 width="20px" height="20px" viewBox="0 0 20 20" enable-background="new 0 0 20 20" xml:space="preserve">
<g>
	<path fill="#2F6E36" d="M0.9,19.5c1.8-0.6,3.7-1.2,5.5-1.9c2.1-0.8,4.3-2,6.1-3.3c2.2-1.6,4-3.9,4.1-6.7c0.2-2.6-1-4.8-2.3-7
		c-0.4,1-0.9,2-1.6,2.8c-1.2,1.5-3,2.1-4.3,3.4c-2.8,2.7-0.6,7.3-3.5,9.6L0.9,19.5z"/>
</g>
<g>
	<path fill="#FFFFFF" d="M3.8,17.2c0,0,0.2-0.1,0.5-0.4c0.3-0.3,0.8-0.6,1.4-1.1c0.6-0.4,1.2-1,1.9-1.5c0.7-0.6,1.4-1.2,2.1-1.9
		c0.3-0.3,0.7-0.7,1-1c0.3-0.4,0.6-0.7,0.9-1.1c0.5-0.7,1-1.4,1.2-2.1c0.3-0.6,0.5-1.2,0.6-1.6c0.1-0.4,0.2-0.6,0.2-0.6s0,0.2,0,0.7
		c0,0.2-0.1,0.5-0.1,0.8c0,0.3-0.1,0.6-0.3,1C13.2,8.7,13,9,12.8,9.4c-0.2,0.4-0.4,0.8-0.7,1.2c-0.3,0.4-0.5,0.8-0.8,1.2
		c-0.3,0.4-0.6,0.7-1,1.1c-0.7,0.7-1.5,1.3-2.2,1.9c-0.7,0.5-1.5,1-2.1,1.4c-0.6,0.4-1.2,0.6-1.6,0.8C4,17.1,3.8,17.2,3.8,17.2z"/>
</g>
</svg>
