<?xml version="1.0" encoding="utf-8"?>
<!-- Generator: Adobe Illustrator 16.0.2, SVG Export Plug-In . SVG Version: 6.00 Build 0)  -->
<!DOCTYPE svg PUBLIC "-//W3C//DTD SVG 1.1//EN" "http://www.w3.org/Graphics/SVG/1.1/DTD/svg11.dtd">
<svg version="1.1" id="Layer_1" xmlns="http://www.w3.org/2000/svg" xmlns:xlink="http://www.w3.org/1999/xlink" x="0px" y="0px"
	 width="50px" height="50px" viewBox="0 0 50 50" enable-background="new 0 0 50 50" xml:space="preserve">
<g>
	<g>
		<path fill="#231F20" d="M25,17.1l4.5,2.6L25,22.4l-4.5-2.6L25,17.1 M25,15.1l-7.9,4.6l7.9,4.7l7.9-4.7L25,15.1L25,15.1z"/>
	</g>
	<g>
		<path fill="#231F20" d="M35.4,23.2l4.5,2.6l-4.5,2.6L31,25.8L35.4,23.2 M35.4,21.2l-7.9,4.6l7.9,4.6l8-4.6L35.4,21.2L35.4,21.2z"
			/>
	</g>
	<g>
		<path fill="#231F20" d="M14.6,23.2l4.5,2.6l-4.5,2.6l-4.4-2.6L14.6,23.2 M14.6,21.2l-7.9,4.6l7.9,4.6l8-4.6L14.6,21.2L14.6,21.2z"
			/>
	</g>
	<g>
		<path fill="#231F20" d="M25,29.2l4.5,2.6L25,34.5l-4.5-2.6L25,29.2 M25,27.2l-7.9,4.7l7.9,4.6l7.9-4.6L25,27.2L25,27.2z"/>
	</g>
</g>
</svg>
