<?xml version="1.0" encoding="utf-8"?>
<!-- Generator: Adobe Illustrator 16.0.2, SVG Export Plug-In . SVG Version: 6.00 Build 0)  -->
<!DOCTYPE svg PUBLIC "-//W3C//DTD SVG 1.1//EN" "http://www.w3.org/Graphics/SVG/1.1/DTD/svg11.dtd">
<svg version="1.1" id="Layer_1" xmlns="http://www.w3.org/2000/svg" xmlns:xlink="http://www.w3.org/1999/xlink" x="0px" y="0px"
	 width="50px" height="50px" viewBox="0 0 50 50" enable-background="new 0 0 50 50" xml:space="preserve">
<polygon id="pil1" fill="#231F20" points="9.8,36.4 15.2,36.4 20.8,36.4 20.8,11.9 20.8,11.9 15.2,11.9 9.8,11.9 9.8,13 "/>
<polygon id="m1" fill="#FFFFFF" points="15.2,34.2 11.8,34.2 11.8,14.1 15.3,14.1 18.7,14.1 18.7,34.2 "/>
<path display="none" fill="#231F20" d="M17.1,19.7L17.1,19.7l7.9,4.6l8-4.6l0,0l0,0l-8-4.6L17.1,19.7L17.1,19.7z"/>
<path fill="#231F20" d="M17.1,22.3L17.1,22.3l7.9,4.6l8-4.6l0,0l0,0l-8-4.6L17.1,22.3L17.1,22.3z"/>
<path fill="#231F20" d="M27.5,17.6L27.5,17.6l7.9,4.6l8-4.6l0,0l0,0l-8-4.6L27.5,17.6L27.5,17.6z"/>
<polygon fill="#FFFFFF" points="24.9,19.7 20.5,22.3 20.5,22.3 25,24.9 29.4,22.3 29.4,22.3 "/>
<polygon fill="#FFFFFF" points="35.3,15.1 30.9,17.6 30.9,17.6 35.4,20.3 39.8,17.6 39.8,17.6 "/>
<polygon display="none" fill="#FFFFFF" points="24.9,17.1 20.5,19.7 20.5,19.7 25,22.3 29.4,19.7 29.4,19.7 "/>
<g opacity="9.999999e-002">
	<path fill="#231F20" d="M6.7,25.8L6.7,25.8l7.9,4.6l8-4.6l0,0l0,0l-8-4.6L6.7,25.8L6.7,25.8z"/>
	<path fill="#231F20" d="M17.1,19.7L17.1,19.7l7.9,4.6l8-4.6l0,0l0,0l-8-4.6L17.1,19.7L17.1,19.7z"/>
	<path fill="#231F20" d="M17.1,31.8L17.1,31.8l7.9,4.6l8-4.6l0,0l0,0l-8-4.6L17.1,31.8L17.1,31.8z"/>
	<path fill="#231F20" d="M27.5,25.8L27.5,25.8l7.9,4.6l8-4.6l0,0l0,0l-8-4.6L27.5,25.8L27.5,25.8z"/>
	<polygon fill="#FFFFFF" points="14.6,23.2 10.2,25.8 10.2,25.8 14.7,28.4 19.1,25.8 19.1,25.8 	"/>
	<polygon fill="#FFFFFF" points="24.9,29.2 20.5,31.8 20.5,31.8 25,34.4 29.4,31.8 29.4,31.8 	"/>
	<polygon fill="#FFFFFF" points="35.3,23.2 30.9,25.8 30.9,25.8 35.4,28.4 39.8,25.8 39.8,25.8 	"/>
	<polygon fill="#FFFFFF" points="24.9,17.1 20.5,19.7 20.5,19.7 25,22.3 29.4,19.7 29.4,19.7 	"/>
</g>
</svg>
