<?xml version="1.0" encoding="utf-8"?>
<!-- Generator: Adobe Illustrator 16.0.2, SVG Export Plug-In . SVG Version: 6.00 Build 0)  -->
<!DOCTYPE svg PUBLIC "-//W3C//DTD SVG 1.1//EN" "http://www.w3.org/Graphics/SVG/1.1/DTD/svg11.dtd">
<svg version="1.1" id="Layer_1" xmlns="http://www.w3.org/2000/svg" xmlns:xlink="http://www.w3.org/1999/xlink" x="0px" y="0px"
	 width="20px" height="20px" viewBox="0 0 20 20" enable-background="new 0 0 20 20" xml:space="preserve">
<linearGradient id="SVGID_1_" gradientUnits="userSpaceOnUse" x1="11.5625" y1="17.6504" x2="3.5695" y2="3.1254">
	<stop  offset="0" style="stop-color:#94C05A"/>
	<stop  offset="1" style="stop-color:#296859"/>
</linearGradient>
<path fill="url(#SVGID_1_)" d="M11.5,19.2c3-0.7,5.5-3,5-6.5c-0.5-3.5-5-4-9.2-12.1C2,5.6,0.8,9.9,2,14.3S8.5,19.9,11.5,19.2z"/>
<g>
	<path fill="#FFFFFF" d="M6.8,7.5c0,0,0,0.2,0.1,0.6c0,0.2,0,0.4,0.1,0.7c0,0.3,0,0.6,0.1,0.9c0.1,0.3,0.1,0.7,0.2,1.1
		c0,0.2,0.1,0.4,0.1,0.6c0.1,0.2,0.1,0.4,0.2,0.6c0.1,0.4,0.2,0.8,0.4,1.2c0.2,0.4,0.4,0.8,0.6,1.2c0.2,0.4,0.5,0.7,0.8,1.1
		c0.2,0.4,0.5,0.7,0.8,1c0.3,0.3,0.5,0.6,0.9,0.8c0.3,0.2,0.6,0.5,0.8,0.7c0.5,0.5,1,0.7,1.3,1c0.3,0.2,0.5,0.4,0.5,0.4
		s-0.2-0.1-0.6-0.2c-0.2-0.1-0.4-0.2-0.7-0.3c-0.3-0.1-0.6-0.2-0.9-0.4c-0.3-0.2-0.6-0.4-1-0.6c-0.4-0.2-0.7-0.5-1-0.8
		c-0.3-0.3-0.7-0.6-1-1c-0.3-0.4-0.6-0.7-0.9-1.2c-0.2-0.4-0.4-0.9-0.6-1.3c-0.2-0.4-0.3-0.9-0.4-1.3c-0.1-0.2-0.1-0.4-0.2-0.6
		c0-0.2,0-0.4,0-0.6c0-0.4,0-0.8,0-1.2c0-0.4,0.1-0.7,0.1-0.9c0-0.3,0.1-0.5,0.1-0.7C6.7,7.8,6.8,7.5,6.8,7.5z"/>
</g>
</svg>
