<?xml version="1.0" encoding="utf-8"?>
<!-- Generator: Adobe Illustrator 16.0.2, SVG Export Plug-In . SVG Version: 6.00 Build 0)  -->
<!DOCTYPE svg PUBLIC "-//W3C//DTD SVG 1.1//EN" "http://www.w3.org/Graphics/SVG/1.1/DTD/svg11.dtd">
<svg version="1.1" id="Layer_1" xmlns="http://www.w3.org/2000/svg" xmlns:xlink="http://www.w3.org/1999/xlink" x="0px" y="0px"
	 width="50px" height="50px" viewBox="0 0 50 50" enable-background="new 0 0 50 50" xml:space="preserve">
<path fill="none" stroke="#231F20" stroke-width="2.5" stroke-miterlimit="10" d="M36.9,15.1H13.2c-1.6,0-2.9,1.3-2.9,2.9v10.6
	c0,1.6,1.3,2.9,2.9,2.9h7.3v6.3l6.9-6.3h9.5c1.6,0,2.9-1.3,2.9-2.9V18C39.8,16.4,38.5,15.1,36.9,15.1z"/>
<g>
	<path fill="#FFFFFF" d="M54.6,37.7l-13.1-9.1c-0.7,0.1-1.5,0.1-2.2,0.1c-9.9,0-17.9-6.8-17.9-15.1s8-15.1,17.9-15.1
		s17.9,6.8,17.9,15.1c0,3.3-1.3,6.5-3.6,9.1L54.6,37.7z"/>
</g>
<path fill="none" stroke="#231F20" stroke-width="2.5" stroke-miterlimit="10" d="M49.5,21.1c2.3-2,3.7-4.6,3.7-7.5
	c0-6.1-6.2-11.1-13.9-11.1s-13.9,5-13.9,11.1c0,6.1,6.2,11.1,13.9,11.1c1.1,0,2.2-0.1,3.2-0.3l7.6,5.2L49.5,21.1z"/>
</svg>
