<?xml version="1.0" encoding="utf-8"?>
<!-- Generator: Adobe Illustrator 16.0.2, SVG Export Plug-In . SVG Version: 6.00 Build 0)  -->
<!DOCTYPE svg PUBLIC "-//W3C//DTD SVG 1.1//EN" "http://www.w3.org/Graphics/SVG/1.1/DTD/svg11.dtd">
<svg version="1.1" id="shit" xmlns="http://www.w3.org/2000/svg" xmlns:xlink="http://www.w3.org/1999/xlink" x="0px" y="0px"
	 width="50px" height="50px" viewBox="0 0 50 50" enable-background="new 0 0 50 50" xml:space="preserve">
<path fill="none" stroke="#231F20" stroke-width="2.5" stroke-miterlimit="10" d="M17.5,15.1h-4.3c-1.6,0-2.9,1.3-2.9,2.9v10.6
	c0,1.6,1.3,2.9,2.9,2.9h7.3v6.3l6.9-6.3h9.5c1.6,0,2.9-1.3,2.9-2.9V27C27.8,27,20.3,21,17.5,15.1z">
<animateMotion  type="translate" fill="freeze" from="0,0" restart="always" calcMode="paced" additive="replace" accumulate="none" to="-1,9" dur="0.5s" begin="1s">
		</animateMotion>
	
		<animateTransform  type="scale" fill="freeze" from="1" restart="always" calcMode="linear" additive="replace" accumulate="none" to="0.85" dur="0.5s" begin="1s" attributeName="transform">
		</animateTransform>
</path>
<path fill="none" stroke="#231F20" stroke-width="2.5" stroke-miterlimit="10" d="M71.5,19c2.1-1.8,3.3-4.1,3.3-6.8
	c0-5.5-5.6-10-12.5-10c-6.9,0-12.5,4.5-12.5,10c0,5.5,5.6,10,12.5,10c1,0,2-0.1,2.9-0.3l6.8,4.7L71.5,19z">
<animateMotion  type="translate" fill="freeze" restart="always" calcMode="paced" additive="replace" accumulate="none" to="-32.5,6" dur="0.5s" begin="1s">
		</animateMotion>
</path>
</svg>
